# xmcd
#
# Track frame offsets:
#	150
#	17063
#	33676
#	52051
#	67795
#	82320
#	94070
#	104658
#	121702
#	131597
#	146554
#
# Disc length: 2212 seconds
#
# Revision: 0
# Processed by: cddbd v1.5.2PL0 Copyright (c) Steve Scherf et al.
# Submitted via: audiograbber 1.83.01
#
DISCID=9b08a20b
DTITLE=Jenny Talia - The Blonde Leading The Blonde
DYEAR=2009
DGENRE=Comedy
TTITLE0=Dumb, Dumb, Dumb
TTITLE1=Fuck It
TTITLE2=Not Going To Give You...
TTITLE3=Hillbilly Love Machine
TTITLE4=Facebook
TTITLE5=Sarah Palin
TTITLE6=New Christmas Song
TTITLE7=Billy The Kid
TTITLE8=I Want A New Set Of Tits For Christmas
TTITLE9=Silent Night
TTITLE10=The Bastard Song
EXTD=
EXTT0=
EXTT1=
EXTT2=
EXTT3=
EXTT4=
EXTT5=
EXTT6=
EXTT7=
EXTT8=
EXTT9=
EXTT10=
PLAYORDER=
